HIERARCHY
ROOT Hips
{
	OFFSET 0.000000 89.005402 0.000000
	CHANNELS 6 Xposition Yposition Zposition Xrotation Yrotation Zrotation
	JOINT Spine
	{
		OFFSET 0.116900 10.681000 0.373400
		CHANNELS 3 Xrotation Yrotation Zrotation
		JOINT Spine1
		{
			OFFSET 0.000000 13.840401 0.053500
			CHANNELS 3 Xrotation Yrotation Zrotation
			JOINT Spine2
			{
				OFFSET 0.000000 14.712700 -0.366200
				CHANNELS 3 Xrotation Yrotation Zrotation
				JOINT Neck
				{
					OFFSET 0.000000 35.415497 -3.314200
					CHANNELS 3 Xrotation Yrotation Zrotation
					JOINT Head
					{
						OFFSET 0.000000 16.899200 1.218300
						CHANNELS 3 Xrotation Yrotation Zrotation
						JOINT HeadTop_End
						{
							OFFSET 0.000000 22.206207 2.192500
							CHANNELS 3 Xrotation Yrotation Zrotation
							End Site
							{
								OFFSET 0.000000 22.314178 0.000000
							}
						}
					}
				}
				JOINT LeftShoulder
				{
					OFFSET 12.896400 26.716293 -4.548400
					CHANNELS 3 Xrotation Yrotation Zrotation
					JOINT LeftArm
					{
						OFFSET 19.027000 -4.857010 -1.718400
						CHANNELS 3 Xrotation Yrotation Zrotation
						JOINT LeftForeArm
						{
							OFFSET 24.179897 0.000000 0.000000
							CHANNELS 3 Xrotation Yrotation Zrotation
							JOINT LeftHand
							{
								OFFSET 27.156403 0.000000 0.000000
								CHANNELS 3 Xrotation Yrotation Zrotation
								JOINT LeftHandIndex1
								{
									OFFSET 16.441200 0.000000 0.000000
									CHANNELS 3 Xrotation Yrotation Zrotation
									JOINT LeftHandIndex2
									{
										OFFSET 4.821899 0.000000 0.000000
										CHANNELS 3 Xrotation Yrotation Zrotation
										JOINT LeftHandIndex3
										{
											OFFSET 6.386497 0.000000 0.000000
											CHANNELS 3 Xrotation Yrotation Zrotation
											JOINT LeftHandIndex4
											{
												OFFSET 5.188988 0.000000 0.000000
												CHANNELS 3 Xrotation Yrotation Zrotation
												End Site
												{
													OFFSET -0.178703 5.185913 0.000177
												}
											}
										}
									}
								}
								JOINT LeftHandThumb1
								{
									OFFSET 6.534897 -5.032593 5.900300
									CHANNELS 3 Xrotation Yrotation Zrotation
									JOINT LeftHandThumb2
									{
										OFFSET 3.818176 -2.204422 2.204423
										CHANNELS 3 Xrotation Yrotation Zrotation
										JOINT LeftHandThumb3
										{
											OFFSET 3.252098 -1.877594 1.877601
											CHANNELS 3 Xrotation Yrotation Zrotation
											JOINT LeftHandThumb4
											{
												OFFSET 5.251778 -3.032120 3.032117
												CHANNELS 3 Xrotation Yrotation Zrotation
												End Site
												{
													OFFSET 0.000023 6.780014 0.000000
												}
											}
										}
									}
								}
							}
						}
					}
				}
				JOINT RightShoulder
				{
					OFFSET -12.896300 26.716293 -4.548400
					CHANNELS 3 Xrotation Yrotation Zrotation
					JOINT RightArm
					{
						OFFSET -19.027000 -4.857010 -1.718400
						CHANNELS 3 Xrotation Yrotation Zrotation
						JOINT RightForeArm
						{
							OFFSET -24.179897 0.000000 0.000000
							CHANNELS 3 Xrotation Yrotation Zrotation
							JOINT RightHand
							{
								OFFSET -27.156403 0.000000 0.000000
								CHANNELS 3 Xrotation Yrotation Zrotation
								JOINT RightHandThumb1
								{
									OFFSET -6.591202 -4.852203 5.988100
									CHANNELS 3 Xrotation Yrotation Zrotation
									JOINT RightHandThumb2
									{
										OFFSET -3.818176 -2.204422 2.204423
										CHANNELS 3 Xrotation Yrotation Zrotation
										JOINT RightHandThumb3
										{
											OFFSET -3.252098 -1.877594 1.877601
											CHANNELS 3 Xrotation Yrotation Zrotation
											JOINT RightHandThumb4
											{
												OFFSET -5.251778 -3.032120 3.032117
												CHANNELS 3 Xrotation Yrotation Zrotation
												End Site
												{
													OFFSET -0.000023 6.780014 0.000000
												}
											}
										}
									}
								}
								JOINT RightHandIndex1
								{
									OFFSET -16.029404 0.000000 0.000000
									CHANNELS 3 Xrotation Yrotation Zrotation
									JOINT RightHandIndex2
									{
										OFFSET -5.213303 0.000000 0.000000
										CHANNELS 3 Xrotation Yrotation Zrotation
										JOINT RightHandIndex3
										{
											OFFSET -6.386528 0.000000 0.000000
											CHANNELS 3 Xrotation Yrotation Zrotation
											JOINT RightHandIndex4
											{
												OFFSET -5.189026 0.000000 0.000000
												CHANNELS 3 Xrotation Yrotation Zrotation
												End Site
												{
													OFFSET 0.236702 5.183624 0.001972
												}
											}
										}
									}
								}
							}
						}
					}
				}
			}
		}
	}
	JOINT LeftUpLeg
	{
		OFFSET 14.073000 -7.904099 -1.463000
		CHANNELS 3 Xrotation Yrotation Zrotation
		JOINT LeftLeg
		{
			OFFSET -0.109806 -34.073280 4.093200
			CHANNELS 3 Xrotation Yrotation Zrotation
			JOINT LeftFoot
			{
				OFFSET 0.109806 -29.899420 -6.319000
				CHANNELS 3 Xrotation Yrotation Zrotation
				JOINT LeftToeBase
				{
					OFFSET 1.551100 -14.988700 20.535801
					CHANNELS 3 Xrotation Yrotation Zrotation
					JOINT LeftToe_End
					{
						OFFSET 0.221200 0.570800 13.248301
						CHANNELS 3 Xrotation Yrotation Zrotation
						End Site
						{
							OFFSET 0.000000 13.262435 0.000000
						}
					}
				}
			}
		}
	}
	JOINT RightUpLeg
	{
		OFFSET -13.839300 -7.904099 -1.463000
		CHANNELS 3 Xrotation Yrotation Zrotation
		JOINT RightLeg
		{
			OFFSET 0.109694 -34.073219 4.093300
			CHANNELS 3 Xrotation Yrotation Zrotation
			JOINT RightFoot
			{
				OFFSET -0.109694 -29.899384 -6.319200
				CHANNELS 3 Xrotation Yrotation Zrotation
				JOINT RightToeBase
				{
					OFFSET -1.551100 -14.988700 20.535801
					CHANNELS 3 Xrotation Yrotation Zrotation
					JOINT RightToe_End
					{
						OFFSET -0.221200 0.570900 13.248299
						CHANNELS 3 Xrotation Yrotation Zrotation
						End Site
						{
							OFFSET 0.000000 13.262440 0.000000
						}
					}
				}
			}
		}
	}
}
MOTION
Frames: 7
Frame Time: 0.033333
6.636295 86.242897 2.788441 -5.486612 -12.475301 -7.582418 0.145344 -0.378039 1.785053 0.662779 0.473901 5.578773 0.656001 0.985293 5.479697 6.982831 -2.571673 -1.949238 25.959867 -11.770280 3.486954 0.000001 -0.000001 -0.000001 0.473725 -11.748238 -11.248938 47.840807 -17.029255 -64.897992 -0.000218 -83.584788 -0.000228 10.553620 -38.601285 41.247946 1.032328 -6.433003 -17.465060 0.267440 2.471092 -16.876895 0.034640 0.816828 -10.169846 -0.000000 0.000002 0.000003 -33.115626 -4.713232 23.091150 0.377393 31.933614 -0.041776 3.350630 14.547041 0.482137 -0.000001 -0.000001 -0.000001 0.544575 4.353653 15.252219 57.785893 2.892810 44.657805 179.992464 89.761376 -179.993188 -0.473321 38.795652 -34.972881 -10.273247 0.612260 -22.395531 -0.919005 -26.980366 3.204007 2.980850 -12.496591 0.447306 -0.000001 -0.000001 0.000001 7.765164 3.013254 35.763051 0.100364 -1.763316 9.669299 -0.193107 -0.216350 13.843952 0.000002 -0.000001 0.000002 -8.344174 15.091378 14.773313 26.659994 9.474388 1.120476 -11.833220 15.990465 -8.601095 -2.077331 0.000002 -0.000004 0.000000 -0.000000 0.000000 10.093369 -3.022016 11.775804 6.083948 9.671836 2.995268 -12.228397 -16.819563 -12.526447 -2.287475 0.000001 0.000002 -0.000000 -0.000002 -0.000000 
6.182362 85.924149 2.642050 -5.726367 -13.405668 -8.368958 0.224018 -0.579466 2.197869 0.701956 0.432094 5.667753 0.693727 0.944018 5.569279 6.840223 -2.422805 -2.045727 25.636666 -11.115827 2.651718 0.000000 0.000000 -0.000000 0.473725 -11.748234 -11.248937 47.840807 -17.029270 -64.898005 -0.000165 -83.662338 -0.000121 9.600708 -38.407369 39.150450 1.036624 -6.415455 -17.611552 0.267454 2.471097 -16.876894 0.034620 0.816837 -10.169831 0.000001 0.000001 0.000003 -33.115626 -4.713234 23.091160 0.377393 31.933624 -0.041785 3.350638 14.547036 0.482158 0.000001 0.000004 0.000001 0.544578 4.353653 15.252217 57.786453 2.870672 44.642639 180.043199 89.754491 -180.043008 -0.549595 38.832054 -34.932179 -10.273267 0.612246 -22.395524 -0.918975 -26.980372 3.204008 2.980854 -12.496587 0.447296 0.000000 -0.000001 -0.000001 7.765128 3.013234 35.763062 0.100389 -1.763315 9.669280 -0.193116 -0.216345 13.843965 -0.000000 0.000002 -0.000001 -9.279393 15.644753 16.471578 28.504495 9.399257 1.204396 -12.531972 16.036214 -9.432092 -1.996881 -0.000003 0.000002 -0.000000 0.000002 0.000000 9.719748 -2.978336 12.438336 7.087048 9.671846 3.634650 -12.626949 -15.758809 -13.258962 -2.541417 0.000001 -0.000000 -0.000000 -0.000000 0.000000 
5.817808 85.776558 2.534603 -5.998617 -14.258914 -8.847089 0.315351 -0.700165 2.397819 0.730845 0.406871 5.721700 0.721754 0.919080 5.623589 6.770236 -2.297078 -2.139798 25.501160 -10.583703 2.048082 0.000001 0.000001 0.000001 0.473724 -11.748229 -11.248937 47.840796 -17.029255 -64.897985 0.000106 -83.728967 0.000121 8.646761 -38.206705 36.510346 1.041051 -6.397610 -17.761304 0.267453 2.471089 -16.876889 0.034628 0.816837 -10.169835 -0.000000 -0.000001 -0.000001 -33.115653 -4.713246 23.091152 0.377396 31.933621 -0.041785 3.350643 14.547044 0.482176 0.000001 0.000001 0.000001 0.544575 4.353659 15.252212 57.786754 2.858991 44.634644 179.993585 89.750195 -179.993202 -0.589917 38.851284 -34.910668 -10.273249 0.612263 -22.395535 -0.918986 -26.980376 3.204010 2.980850 -12.496589 0.447296 0.000001 0.000000 0.000002 7.765144 3.013246 35.763048 0.100370 -1.763317 9.669277 -0.193134 -0.216355 13.843964 0.000002 -0.000002 -0.000001 -9.455786 15.981960 17.407616 29.252488 9.350447 1.320500 -12.740921 16.430496 -10.047112 -1.786096 -0.000007 0.000006 0.000000 -0.000003 -0.000000 9.733800 -2.974780 12.777151 7.403392 9.675723 4.085240 -12.635232 -14.781720 -13.714330 -2.762064 0.000005 -0.000002 -0.000000 0.000000 -0.000000 
5.519340 85.821487 2.488236 -6.254827 -15.070172 -8.937910 0.342459 -0.664944 2.355947 0.726214 0.415252 5.720705 0.717262 0.927598 5.622461 6.843217 -2.181487 -2.238757 25.689284 -10.139555 1.782867 0.000002 -0.000001 0.000000 0.473724 -11.748229 -11.248937 47.840807 -17.029255 -64.898005 -0.000326 -83.786743 -0.000288 7.755121 -37.985602 33.773721 1.045642 -6.379502 -17.914104 0.267440 2.471105 -16.876887 0.034638 0.816840 -10.169829 0.000001 0.000001 0.000003 -33.115650 -4.713247 23.091136 0.377406 31.933624 -0.041793 3.350616 14.547058 0.482143 -0.000001 0.000002 0.000002 0.544573 4.353651 15.252214 57.786795 2.857474 44.633609 180.174858 89.750079 -180.174953 -0.595190 38.853774 -34.907833 -10.273267 0.612268 -22.395531 -0.918985 -26.980362 3.203998 2.980855 -12.496582 0.447296 0.000001 -0.000002 -0.000000 7.765157 3.013250 35.763055 0.100371 -1.763310 9.669284 -0.193125 -0.216339 13.843970 0.000000 -0.000001 -0.000002 -8.776689 16.046696 17.421191 28.800510 9.339933 1.467617 -12.408627 17.320590 -10.450879 -1.545902 -0.000000 -0.000001 -0.000000 0.000002 0.000000 10.065642 -2.949974 12.775572 7.067648 9.681010 4.248848 -12.285935 -13.946520 -13.863808 -2.879430 0.000012 -0.000002 -0.000000 -0.000001 0.000000 
5.266660 86.022247 2.496795 -6.455982 -15.879281 -8.695752 0.265441 -0.487689 2.141575 0.685842 0.454710 5.671532 0.677906 0.967124 5.572683 7.028794 -2.063954 -2.346968 26.147883 -9.729832 1.783316 -0.000000 -0.000001 -0.000000 0.473726 -11.748225 -11.248937 47.840800 -17.029256 -64.898012 -0.000398 -83.837922 -0.000427 6.985087 -37.752371 31.383944 1.050395 -6.361147 -18.069759 0.267446 2.471091 -16.876885 0.034631 0.816843 -10.169827 0.000000 0.000001 -0.000000 -33.115643 -4.713251 23.091148 0.377376 31.933641 -0.041787 3.350633 14.547043 0.482154 -0.000000 0.000001 -0.000001 0.544576 4.353654 15.252222 57.786774 2.857461 44.633579 180.101843 89.750079 -180.101843 -0.595186 38.853811 -34.907857 -10.273254 0.612251 -22.395529 -0.918980 -26.980366 3.204006 2.980844 -12.496576 0.447285 -0.000000 -0.000002 -0.000001 7.765157 3.013252 35.763051 0.100348 -1.763319 9.669290 -0.193124 -0.216347 13.843957 0.000002 0.000000 -0.000004 -7.420615 15.909585 16.701167 27.349823 9.356779 1.586924 -11.643423 18.597705 -10.655181 -1.387936 0.000000 0.000001 0.000000 0.000000 0.000000 10.611347 -2.908278 12.498259 6.209282 9.687134 4.156276 -11.657341 -13.208025 -13.754678 -2.883097 -0.000005 -0.000000 0.000000 -0.000001 -0.000000 
5.064046 86.307388 2.526496 -6.598042 -16.679349 -8.276820 0.098289 -0.269997 1.869068 0.626190 0.503313 5.604972 0.619554 1.015839 5.505352 7.228227 -1.944989 -2.464819 26.654192 -9.333810 1.822332 0.000000 0.000002 -0.000000 0.473725 -11.748231 -11.248938 47.840793 -17.029255 -64.897999 -0.000297 -83.884729 -0.000306 6.389953 -37.531989 29.779768 1.055265 -6.342589 -18.228124 0.267465 2.471083 -16.876887 0.034615 0.816835 -10.169840 0.000000 -0.000000 0.000001 -33.115629 -4.713236 23.091159 0.377391 31.933627 -0.041788 3.350639 14.547022 0.482150 0.000001 0.000001 0.000000 0.544574 4.353650 15.252215 57.786774 2.857459 44.633582 180.143138 89.750072 -180.144122 -0.595212 38.853787 -34.907840 -10.273246 0.612260 -22.395550 -0.919000 -26.980362 3.204015 2.980841 -12.496566 0.447289 0.000002 -0.000000 -0.000001 7.765158 3.013251 35.763045 0.100358 -1.763311 9.669281 -0.193112 -0.216337 13.843962 -0.000000 -0.000001 0.000002 -5.752321 15.703418 15.638638 25.324870 9.387407 1.624951 -10.653438 19.976043 -10.679795 -1.339088 0.000008 -0.000001 -0.000000 -0.000000 -0.000000 11.275951 -2.897542 12.056298 4.988884 9.687891 3.943006 -10.837614 -12.485173 -13.483007 -2.813243 -0.000004 0.000002 -0.000000 0.000001 0.000000 
4.922176 86.572182 2.555180 -6.681365 -17.424004 -7.862985 -0.118458 -0.141750 1.655908 0.565769 0.533555 5.556149 0.560022 1.046389 5.455991 7.354722 -1.836121 -2.591714 26.980789 -8.982181 1.672588 0.000000 0.000002 -0.000000 0.473726 -11.748230 -11.248939 47.840803 -17.029263 -64.898019 -0.000246 -83.928880 -0.000259 5.932692 -37.336293 28.866340 1.060299 -6.323836 -18.389002 0.267467 2.471094 -16.876883 0.034629 0.816832 -10.169834 0.000001 -0.000001 0.000001 -33.115609 -4.713242 23.091148 0.377366 31.933621 -0.041771 3.350627 14.547046 0.482146 0.000000 0.000001 0.000004 0.544575 4.353654 15.252217 57.786774 2.857453 44.633572 180.137278 89.750086 -180.137278 -0.595178 38.853787 -34.907861 -10.273258 0.612272 -22.395526 -0.918975 -26.980372 3.204011 2.980853 -12.496584 0.447286 0.000002 -0.000002 -0.000001 7.765150 3.013254 35.763058 0.100388 -1.763323 9.669260 -0.193128 -0.216338 13.843974 0.000002 -0.000004 0.000002 -4.232795 15.537016 14.654623 23.379560 9.414580 1.557555 -9.756261 21.179257 -10.584047 -1.363596 0.000002 0.000001 -0.000000 0.000003 0.000000 11.912325 -2.962369 11.584067 3.732838 9.673850 3.760877 -10.044912 -11.724670 -13.179688 -2.728194 0.000003 0.000003 -0.000000 0.000002 0.000000 
